<svg width="25" height="24" viewBox="0 0 25 24" fill="none" xmlns="http://www.w3.org/2000/svg">
<path d="M11.3333 3H8.13325C6.45309 3 5.61302 3 4.97128 3.32698C4.40679 3.6146 3.94785 4.07354 3.66023 4.63803C3.33325 5.27976 3.33325 6.11984 3.33325 7.8V16.2C3.33325 17.8802 3.33325 18.7202 3.66023 19.362C3.94785 19.9265 4.40679 20.3854 4.97128 20.673C5.61302 21 6.45309 21 8.13325 21H16.5333C18.2134 21 19.0535 21 19.6952 20.673C20.2597 20.3854 20.7187 19.9265 21.0063 19.362C21.3333 18.7202 21.3333 17.8802 21.3333 16.2V13M12.3333 8H16.3333V12M15.8333 3.5V2M19.7726 4.56066L20.8333 3.5M20.8435 8.5H22.3435M3.33325 13.3471C3.98519 13.4478 4.65312 13.5 5.33325 13.5C9.71961 13.5 13.5986 11.3276 15.9529 8" stroke="#414651" stroke-width="2" stroke-linecap="round" stroke-linejoin="round"/>
</svg>
